<svg width="30" height="30" viewBox="0 0 30 30" fill="none" xmlns="http://www.w3.org/2000/svg">
<path d="M29.2663 17.0936C29.1142 17.0582 28.9561 17.0571 28.8036 17.0905C28.651 17.1238 28.5076 17.1908 28.3839 17.2865C27.3727 18.1519 26.2168 18.8306 24.9699 19.2911C23.7326 19.7609 22.4193 19.996 21.0966 19.9845C19.6147 19.9854 18.1471 19.6931 16.7778 19.1241C15.4084 18.5551 14.1641 17.7207 13.116 16.6686C11.0021 14.5428 9.81559 11.6607 9.81749 8.65622C9.81749 7.34494 10.0471 6.07436 10.4328 4.91832C10.853 3.68693 11.4682 2.56857 12.2726 1.60697C12.3537 1.50603 12.4141 1.38997 12.4503 1.26548C12.4865 1.14099 12.4978 1.01054 12.4836 0.881635C12.4693 0.752733 12.4299 0.627934 12.3674 0.514435C12.3049 0.400935 12.2207 0.300979 12.1195 0.22033C11.9958 0.124582 11.8525 0.0576097 11.6999 0.0242469C11.5473 -0.00911582 11.3893 -0.00803669 11.2371 0.0274064C7.97765 0.91365 5.13986 2.87755 3.10643 5.4986C1.08719 8.15359 -0.00459559 11.4029 1.45402e-05 14.7439C1.45402e-05 18.9445 1.68828 22.7577 4.44954 25.531C5.8557 26.953 7.52911 28.0803 9.37261 28.8475C11.2161 29.6147 13.193 30.0064 15.1884 29.9999C18.718 29.9999 21.9775 28.767 24.5857 26.7247C27.2739 24.6033 29.1671 21.6297 29.9567 18.2888C29.9957 18.1648 30.0086 18.034 29.9944 17.9047C29.9802 17.7755 29.9394 17.6506 29.8744 17.5381C29.8094 17.4256 29.7218 17.3279 29.6171 17.2514C29.5124 17.1749 29.3929 17.1211 29.2663 17.0936Z" fill="#B3A0FF"/>
</svg>
