<svg width="30" height="30" viewBox="0 0 30 30" fill="none" xmlns="http://www.w3.org/2000/svg">
<path d="M14.9728 24.7258C15.3316 24.7259 15.6778 24.858 15.9458 25.0968C16.2138 25.3357 16.385 25.6648 16.4269 26.0217L16.4375 26.1928V28.5385C16.4361 28.9118 16.2927 29.2705 16.0365 29.5416C15.7802 29.8126 15.4305 29.9757 15.0584 29.9975C14.6864 30.0193 14.32 29.8983 14.034 29.659C13.7479 29.4197 13.5637 29.0803 13.5188 28.7097L13.5096 28.5385V26.1928C13.5096 25.3829 14.1642 24.7258 14.9728 24.7258ZM8.10689 21.8788C8.63633 22.4075 8.67599 23.2389 8.22895 23.8135L8.10689 23.951L6.45144 25.6121C6.18771 25.8744 5.83427 26.0265 5.46274 26.0376C5.09121 26.0486 4.72938 25.9178 4.45058 25.6716C4.17178 25.4254 3.99687 25.0822 3.96128 24.7117C3.92569 24.3411 4.03209 23.9708 4.25892 23.6759L4.38098 23.5384L6.03795 21.8788C6.17385 21.7425 6.33522 21.6344 6.51286 21.5607C6.69049 21.4869 6.88089 21.449 7.07318 21.449C7.26547 21.449 7.45588 21.4869 7.63351 21.5607C7.81114 21.6344 7.97099 21.7425 8.10689 21.8788ZM23.9077 21.8788L25.5646 23.5384C25.7006 23.6745 25.8084 23.8362 25.882 24.0141C25.9556 24.192 25.9935 24.3827 25.9935 24.5752C25.9935 24.7678 25.9556 24.9585 25.882 25.1364C25.8084 25.3143 25.7006 25.4759 25.5646 25.6121C25.4287 25.7483 25.2673 25.8563 25.0897 25.93C24.9121 26.0037 24.7217 26.0416 24.5294 26.0416C24.3372 26.0416 24.1468 26.0037 23.9692 25.93C23.7915 25.8563 23.6301 25.7483 23.4942 25.6121L21.8387 23.9525C21.7028 23.8165 21.5949 23.6549 21.5213 23.4771C21.4477 23.2993 21.4098 23.1087 21.4097 22.9162C21.4096 22.7237 21.4474 22.5331 21.5209 22.3552C21.5944 22.1773 21.7021 22.0157 21.838 21.8796C21.9738 21.7434 22.1351 21.6354 22.3126 21.5616C22.4902 21.4879 22.6805 21.4499 22.8727 21.4498C23.0648 21.4498 23.2552 21.4876 23.4328 21.5612C23.6103 21.6348 23.7717 21.7427 23.9077 21.8788ZM14.9728 7.48803C16.9622 7.49045 18.8694 8.28305 20.276 9.69196C21.6827 11.1009 22.4741 13.0111 22.4765 15.0036C22.4741 16.9961 21.6827 18.9063 20.276 20.3152C18.8694 21.7241 16.9622 22.5167 14.9728 22.5191C12.9837 22.5163 11.0769 21.7235 9.67056 20.3146C8.2642 18.9058 7.47307 16.9958 7.47064 15.0036C7.47307 13.0113 8.2642 11.1014 9.67056 9.69249C11.0769 8.28363 12.9837 7.49086 14.9728 7.48803ZM28.488 13.5365C28.6842 13.5302 28.8797 13.5634 29.0629 13.6342C29.246 13.7051 29.4131 13.8121 29.5541 13.9488C29.6952 14.0856 29.8073 14.2494 29.8839 14.4305C29.9605 14.6115 30 14.8062 30 15.0028C30 15.1994 29.9605 15.3941 29.8839 15.5751C29.8073 15.7562 29.6952 15.92 29.5541 16.0568C29.4131 16.1935 29.246 16.3005 29.0629 16.3714C28.8797 16.4422 28.6842 16.4754 28.488 16.4691H26.146C25.7575 16.4691 25.3849 16.3145 25.1102 16.0394C24.8355 15.7643 24.6812 15.3911 24.6812 15.002C24.6812 14.6129 24.8355 14.2398 25.1102 13.9647C25.3849 13.6896 25.7575 13.535 26.146 13.535L28.488 13.5365ZM3.80119 13.5365C4.17186 13.5408 4.52711 13.6858 4.7953 13.9421C5.0635 14.1984 5.22468 14.547 5.24636 14.9177C5.26804 15.2883 5.14859 15.6534 4.91211 15.9393C4.67563 16.2253 4.33971 16.4107 3.97207 16.4584L3.80119 16.4691H1.45915C1.08646 16.4677 0.728336 16.324 0.457704 16.0674C0.187072 15.8107 0.0242881 15.4604 0.00250581 15.0878C-0.0192764 14.7152 0.101581 14.3482 0.340464 14.0617C0.579347 13.7752 0.918289 13.5907 1.28826 13.5457L1.45915 13.5365H3.80119ZM25.5646 4.39349C25.839 4.66857 25.9932 5.04151 25.9932 5.43035C25.9932 5.81919 25.839 6.19213 25.5646 6.46721L23.9077 8.1268C23.7739 8.27219 23.6121 8.38898 23.4321 8.47017C23.2521 8.55137 23.0576 8.59527 22.8602 8.59926C22.6628 8.60325 22.4667 8.56723 22.2836 8.49338C22.1004 8.41952 21.9341 8.30935 21.7946 8.16949C21.655 8.02963 21.5451 7.86295 21.4715 7.67948C21.3979 7.49601 21.3621 7.29953 21.3662 7.10185C21.3704 6.90417 21.4144 6.70936 21.4956 6.52913C21.5767 6.34891 21.6935 6.18698 21.8387 6.05308L23.4942 4.39349C23.7688 4.11866 24.1412 3.96429 24.5294 3.96429C24.9176 3.96429 25.29 4.11866 25.5646 4.39349ZM6.31412 4.27123L6.45144 4.39349L8.10841 6.05308C8.37263 6.31687 8.5264 6.67169 8.53833 7.04516C8.55027 7.41862 8.41948 7.78257 8.17264 8.06275C7.92581 8.34292 7.58153 8.5182 7.21007 8.55282C6.83861 8.58745 6.46796 8.4788 6.17375 8.24905L6.03643 8.1268L4.37945 6.46721C4.11317 6.20416 3.95757 5.84898 3.94461 5.47461C3.93165 5.10024 4.06231 4.73511 4.30975 4.45422C4.55719 4.17333 4.90263 3.99801 5.27511 3.96426C5.64759 3.93051 6.01884 4.0409 6.31259 4.27276L6.31412 4.27123ZM14.9728 0C15.7815 0 16.4375 0.657112 16.4375 1.46704V3.81278C16.4375 4.20186 16.2832 4.57501 16.0085 4.85014C15.7338 5.12526 15.3613 5.27982 14.9728 5.27982C14.5843 5.27982 14.2118 5.12526 13.9371 4.85014C13.6624 4.57501 13.5081 4.20186 13.5081 3.81278V1.46704C13.5081 0.657112 14.1642 0 14.9728 0Z" fill="#B3A0FF"/>
</svg>
