<svg width="40" height="40" viewBox="0 0 40 40" fill="none" xmlns="http://www.w3.org/2000/svg">
<path d="M12.5 27.5H27.5V12.5H12.5V27.5ZM20.0133 40C17.2555 40 14.6638 39.475 12.2383 38.425C9.81277 37.375 7.69167 35.9417 5.875 34.125C4.05833 32.3083 2.625 30.186 1.575 27.758C0.525 25.33 0 22.7356 0 19.975C0 17.2144 0.525 14.6201 1.575 12.1921C2.625 9.76402 4.05833 7.65 5.875 5.85C7.69167 4.05 9.81402 2.625 12.2421 1.575C14.6701 0.525 17.2644 0 20.025 0C22.7856 0 25.38 0.525 27.808 1.575C30.236 2.625 32.35 4.05 34.15 5.85C35.95 7.65 37.375 9.76667 38.425 12.2C39.475 14.6333 40 17.2289 40 19.9867C40 22.7445 39.475 25.3362 38.425 27.7617C37.375 30.1872 35.95 32.3053 34.15 34.1158C32.35 35.9263 30.2333 37.3597 27.8 38.4158C25.3667 39.4719 22.7711 40 20.0133 40ZM20.025 37C24.7417 37 28.75 35.3417 32.05 32.025C35.35 28.7083 37 24.6917 37 19.975C37 15.2583 35.3531 11.25 32.0594 7.95C28.7656 4.65 24.7458 3 20 3C15.3 3 11.2917 4.64687 7.975 7.9406C4.65833 11.2344 3 15.2542 3 20C3 24.7 4.65833 28.7083 7.975 32.025C11.2917 35.3417 15.3083 37 20.025 37Z" fill="black"/>
</svg>
